<?xml version="1.0" encoding="utf-8"?>
<!-- Generator: Adobe Illustrator 24.1.1, SVG Export Plug-In . SVG Version: 6.00 Build 0)  -->
<svg version="1.1" id="Layer_1" xmlns="http://www.w3.org/2000/svg" xmlns:xlink="http://www.w3.org/1999/xlink" x="0px" y="0px"
	 viewBox="0 0 512 512" style="enable-background:new 0 0 512 512;" xml:space="preserve">
<g>
	<path d="M233.6,31.7l-15.9,15.9l230.9,230.9l-69.2,69.2l-215-215l85.1-85.1L233.6,31.7l-15.9,15.9L233.6,31.7l-15.9-15.9
		L100.9,132.6l278.4,278.4L512,278.4L233.6,0l-15.9,15.9L233.6,31.7z M361.6,137.3l6.6-6.6l13.1,13.1l-6.6,6.6l31.7,31.7l38.3-38.3
		l-76.6-76.6l-38.3,38.3L361.6,137.3L361.6,137.3z M262.6,262.6l-186,186l-13.1-13.1l186-186l-31.7-31.7L0,435.4L76.6,512
		l217.7-217.7L262.6,262.6L262.6,262.6z M83.1,406.4l22.4,22.4l31.7-31.7l-22.4-22.4L83.1,406.4z"/>
</g>
</svg>
